<mxfile host="app.diagrams.net" modified="2023-09-18T07:02:36.673Z" agent="Mozilla/5.0 (Windows NT 10.0; Win64; x64) AppleWebKit/537.36 (KHTML, like Gecko) Chrome/117.0.0.0 Safari/537.36" etag="TuPM0f8di5fe8UtSrLNX" version="21.7.5" type="device">
  <diagram name="Page-1" id="iNzOSbh5edUucC14pDwA">
    <mxGraphModel dx="3693" dy="2036" grid="1" gridSize="10" guides="1" tooltips="1" connect="1" arrows="1" fold="1" page="1" pageScale="1" pageWidth="827" pageHeight="1169" background="none" math="0" shadow="0">
      <root>
        <mxCell id="0" />
        <mxCell id="1" parent="0" />
        <mxCell id="_8SqQ5d0Q-dbpcb6T9Er-37" value="" style="rounded=0;whiteSpace=wrap;html=1;movable=0;resizable=0;rotatable=0;deletable=0;editable=0;locked=1;connectable=0;" parent="1" vertex="1">
          <mxGeometry x="310" y="50" width="1050" height="1500" as="geometry" />
        </mxCell>
        <mxCell id="c9bBBt9giKnUV_yhjs_y-4" value="Manager" style="shape=umlActor;verticalLabelPosition=bottom;verticalAlign=top;html=1;outlineConnect=0;" parent="1" vertex="1">
          <mxGeometry x="230" y="520" width="30" height="60" as="geometry" />
        </mxCell>
        <mxCell id="c9bBBt9giKnUV_yhjs_y-5" value="Crew Member" style="shape=umlActor;verticalLabelPosition=bottom;verticalAlign=top;html=1;outlineConnect=0;" parent="1" vertex="1">
          <mxGeometry x="230" y="790" width="30" height="60" as="geometry" />
        </mxCell>
        <mxCell id="c9bBBt9giKnUV_yhjs_y-6" value="IT Admin" style="shape=umlActor;verticalLabelPosition=bottom;verticalAlign=top;html=1;outlineConnect=0;" parent="1" vertex="1">
          <mxGeometry x="230" y="1170" width="30" height="60" as="geometry" />
        </mxCell>
        <mxCell id="_8SqQ5d0Q-dbpcb6T9Er-34" style="edgeStyle=orthogonalEdgeStyle;rounded=0;orthogonalLoop=1;jettySize=auto;html=1;entryX=0;entryY=1;entryDx=0;entryDy=0;dashed=1;" parent="1" source="-MPCwY4QycjubMBgxY0D-13" target="-MPCwY4QycjubMBgxY0D-14" edge="1">
          <mxGeometry relative="1" as="geometry" />
        </mxCell>
        <mxCell id="_8SqQ5d0Q-dbpcb6T9Er-52" value="&amp;lt;&amp;lt;include&amp;gt;&amp;gt;" style="edgeLabel;html=1;align=center;verticalAlign=middle;resizable=0;points=[];" parent="_8SqQ5d0Q-dbpcb6T9Er-34" connectable="0" vertex="1">
          <mxGeometry x="0.4209" y="-2" relative="1" as="geometry">
            <mxPoint as="offset" />
          </mxGeometry>
        </mxCell>
        <mxCell id="-MPCwY4QycjubMBgxY0D-13" value="View Job Assignments" style="ellipse;whiteSpace=wrap;html=1;" parent="1" vertex="1">
          <mxGeometry x="397.5" y="780" width="120" height="80" as="geometry" />
        </mxCell>
        <mxCell id="-MPCwY4QycjubMBgxY0D-14" value="Authenticate into System using Credentials" style="ellipse;whiteSpace=wrap;html=1;" parent="1" vertex="1">
          <mxGeometry x="1040" y="780" width="120" height="80" as="geometry" />
        </mxCell>
        <mxCell id="-MPCwY4QycjubMBgxY0D-15" value="Confirm Pending Assignment&lt;br&gt;&lt;br&gt;Extension Point:&lt;br&gt;User is Crew Member" style="ellipse;whiteSpace=wrap;html=1;" parent="1" vertex="1">
          <mxGeometry x="680" y="680" width="180" height="120" as="geometry" />
        </mxCell>
        <mxCell id="-MPCwY4QycjubMBgxY0D-16" value="Reject Pending Assignment&lt;br&gt;&lt;br&gt;Extension Point:&lt;br&gt;User is Crew Member" style="ellipse;whiteSpace=wrap;html=1;" parent="1" vertex="1">
          <mxGeometry x="680" y="860" width="180" height="120" as="geometry" />
        </mxCell>
        <mxCell id="-MPCwY4QycjubMBgxY0D-18" value="" style="endArrow=classic;dashed=1;html=1;strokeWidth=1;rounded=0;exitX=1;exitY=0.5;exitDx=0;exitDy=0;entryX=0;entryY=0.5;entryDx=0;entryDy=0;endFill=1;" parent="1" source="-MPCwY4QycjubMBgxY0D-13" target="-MPCwY4QycjubMBgxY0D-15" edge="1">
          <mxGeometry width="50" height="50" relative="1" as="geometry">
            <mxPoint x="550" y="810" as="sourcePoint" />
            <mxPoint x="600" y="760" as="targetPoint" />
          </mxGeometry>
        </mxCell>
        <mxCell id="_8SqQ5d0Q-dbpcb6T9Er-41" value="&amp;lt;&amp;lt;extend&amp;gt;&amp;gt;" style="edgeLabel;html=1;align=center;verticalAlign=middle;resizable=0;points=[];" parent="-MPCwY4QycjubMBgxY0D-18" connectable="0" vertex="1">
          <mxGeometry x="-0.0972" y="2" relative="1" as="geometry">
            <mxPoint as="offset" />
          </mxGeometry>
        </mxCell>
        <mxCell id="-MPCwY4QycjubMBgxY0D-19" value="" style="endArrow=classic;dashed=1;html=1;strokeWidth=1;rounded=0;exitX=1;exitY=0.5;exitDx=0;exitDy=0;entryX=0;entryY=0.5;entryDx=0;entryDy=0;endFill=1;" parent="1" source="-MPCwY4QycjubMBgxY0D-13" target="-MPCwY4QycjubMBgxY0D-16" edge="1">
          <mxGeometry width="50" height="50" relative="1" as="geometry">
            <mxPoint x="528" y="830" as="sourcePoint" />
            <mxPoint x="690" y="730" as="targetPoint" />
          </mxGeometry>
        </mxCell>
        <mxCell id="_8SqQ5d0Q-dbpcb6T9Er-43" value="&amp;lt;&amp;lt;extend&amp;gt;&amp;gt;" style="edgeLabel;html=1;align=center;verticalAlign=middle;resizable=0;points=[];" parent="-MPCwY4QycjubMBgxY0D-19" connectable="0" vertex="1">
          <mxGeometry x="-0.0658" y="-3" relative="1" as="geometry">
            <mxPoint as="offset" />
          </mxGeometry>
        </mxCell>
        <mxCell id="_8SqQ5d0Q-dbpcb6T9Er-35" style="edgeStyle=orthogonalEdgeStyle;rounded=0;orthogonalLoop=1;jettySize=auto;html=1;entryX=0.5;entryY=1;entryDx=0;entryDy=0;dashed=1;" parent="1" source="-MPCwY4QycjubMBgxY0D-20" target="-MPCwY4QycjubMBgxY0D-14" edge="1">
          <mxGeometry relative="1" as="geometry" />
        </mxCell>
        <mxCell id="_8SqQ5d0Q-dbpcb6T9Er-53" value="&amp;lt;&amp;lt;include&amp;gt;&amp;gt;" style="edgeLabel;html=1;align=center;verticalAlign=middle;resizable=0;points=[];" parent="_8SqQ5d0Q-dbpcb6T9Er-35" connectable="0" vertex="1">
          <mxGeometry x="-0.144" y="-1" relative="1" as="geometry">
            <mxPoint as="offset" />
          </mxGeometry>
        </mxCell>
        <mxCell id="-MPCwY4QycjubMBgxY0D-20" value="Indicate Non-Availability" style="ellipse;whiteSpace=wrap;html=1;" parent="1" vertex="1">
          <mxGeometry x="397.5" y="970" width="120" height="80" as="geometry" />
        </mxCell>
        <mxCell id="DGdy6gdR3vb5aEr1v1zL-4" style="edgeStyle=orthogonalEdgeStyle;rounded=0;orthogonalLoop=1;jettySize=auto;html=1;entryX=0.5;entryY=0;entryDx=0;entryDy=0;dashed=1;" parent="1" source="-MPCwY4QycjubMBgxY0D-21" target="-MPCwY4QycjubMBgxY0D-14" edge="1">
          <mxGeometry relative="1" as="geometry" />
        </mxCell>
        <mxCell id="DGdy6gdR3vb5aEr1v1zL-11" value="&amp;lt;&amp;lt;include&amp;gt;&amp;gt;" style="edgeLabel;html=1;align=center;verticalAlign=middle;resizable=0;points=[];" parent="DGdy6gdR3vb5aEr1v1zL-4" connectable="0" vertex="1">
          <mxGeometry x="-0.5013" y="-1" relative="1" as="geometry">
            <mxPoint x="-11" y="-1" as="offset" />
          </mxGeometry>
        </mxCell>
        <mxCell id="-MPCwY4QycjubMBgxY0D-21" value="View Crew Members&#39; Availability" style="ellipse;whiteSpace=wrap;html=1;" parent="1" vertex="1">
          <mxGeometry x="398.88" y="310" width="120" height="80" as="geometry" />
        </mxCell>
        <mxCell id="DGdy6gdR3vb5aEr1v1zL-3" style="edgeStyle=orthogonalEdgeStyle;rounded=0;orthogonalLoop=1;jettySize=auto;html=1;dashed=1;entryX=0.267;entryY=0.063;entryDx=0;entryDy=0;entryPerimeter=0;" parent="1" source="-MPCwY4QycjubMBgxY0D-22" target="-MPCwY4QycjubMBgxY0D-14" edge="1">
          <mxGeometry relative="1" as="geometry">
            <mxPoint x="1070" y="720" as="targetPoint" />
          </mxGeometry>
        </mxCell>
        <mxCell id="DGdy6gdR3vb5aEr1v1zL-10" value="&amp;lt;&amp;lt;include&amp;gt;&amp;gt;" style="edgeLabel;html=1;align=center;verticalAlign=middle;resizable=0;points=[];" parent="DGdy6gdR3vb5aEr1v1zL-3" connectable="0" vertex="1">
          <mxGeometry x="-0.4327" y="1" relative="1" as="geometry">
            <mxPoint as="offset" />
          </mxGeometry>
        </mxCell>
        <mxCell id="-MPCwY4QycjubMBgxY0D-22" value="Allocate Job Assignment to available Crew Member" style="ellipse;whiteSpace=wrap;html=1;" parent="1" vertex="1">
          <mxGeometry x="397.63" y="430" width="122.5" height="80" as="geometry" />
        </mxCell>
        <mxCell id="-MPCwY4QycjubMBgxY0D-24" value="" style="endArrow=none;html=1;rounded=0;entryX=0;entryY=0.5;entryDx=0;entryDy=0;" parent="1" target="_8SqQ5d0Q-dbpcb6T9Er-66" edge="1">
          <mxGeometry width="50" height="50" relative="1" as="geometry">
            <mxPoint x="270" y="550" as="sourcePoint" />
            <mxPoint x="290" y="580" as="targetPoint" />
          </mxGeometry>
        </mxCell>
        <mxCell id="-MPCwY4QycjubMBgxY0D-25" value="" style="endArrow=none;html=1;rounded=0;entryX=0;entryY=0.5;entryDx=0;entryDy=0;" parent="1" target="-MPCwY4QycjubMBgxY0D-13" edge="1">
          <mxGeometry width="50" height="50" relative="1" as="geometry">
            <mxPoint x="270" y="820" as="sourcePoint" />
            <mxPoint x="397.5" y="890" as="targetPoint" />
          </mxGeometry>
        </mxCell>
        <mxCell id="-MPCwY4QycjubMBgxY0D-26" value="Create Account" style="ellipse;whiteSpace=wrap;html=1;" parent="1" vertex="1">
          <mxGeometry x="658.75" y="1050" width="120" height="80" as="geometry" />
        </mxCell>
        <mxCell id="-MPCwY4QycjubMBgxY0D-27" value="Delete Account" style="ellipse;whiteSpace=wrap;html=1;" parent="1" vertex="1">
          <mxGeometry x="740" y="1160" width="120" height="80" as="geometry" />
        </mxCell>
        <mxCell id="-MPCwY4QycjubMBgxY0D-28" value="Modify Account Roles" style="ellipse;whiteSpace=wrap;html=1;" parent="1" vertex="1">
          <mxGeometry x="700" y="1280" width="120" height="80" as="geometry" />
        </mxCell>
        <mxCell id="_8SqQ5d0Q-dbpcb6T9Er-36" style="edgeStyle=orthogonalEdgeStyle;rounded=0;orthogonalLoop=1;jettySize=auto;html=1;entryX=1;entryY=1;entryDx=0;entryDy=0;dashed=1;" parent="1" source="-MPCwY4QycjubMBgxY0D-29" target="-MPCwY4QycjubMBgxY0D-14" edge="1">
          <mxGeometry relative="1" as="geometry">
            <Array as="points">
              <mxPoint x="459" y="1490" />
              <mxPoint x="1142" y="1490" />
            </Array>
          </mxGeometry>
        </mxCell>
        <mxCell id="_8SqQ5d0Q-dbpcb6T9Er-54" value="&amp;lt;&amp;lt;include&amp;gt;&amp;gt;" style="edgeLabel;html=1;align=center;verticalAlign=middle;resizable=0;points=[];" parent="_8SqQ5d0Q-dbpcb6T9Er-36" connectable="0" vertex="1">
          <mxGeometry x="-0.1658" y="-2" relative="1" as="geometry">
            <mxPoint as="offset" />
          </mxGeometry>
        </mxCell>
        <mxCell id="-MPCwY4QycjubMBgxY0D-29" value="Manage Employee Accounts" style="ellipse;whiteSpace=wrap;html=1;" parent="1" vertex="1">
          <mxGeometry x="399" y="1160" width="120" height="80" as="geometry" />
        </mxCell>
        <mxCell id="-MPCwY4QycjubMBgxY0D-30" value="" style="endArrow=classic;dashed=1;html=1;strokeWidth=1;rounded=0;exitX=1;exitY=0.5;exitDx=0;exitDy=0;entryX=0;entryY=0.5;entryDx=0;entryDy=0;endFill=1;" parent="1" source="-MPCwY4QycjubMBgxY0D-29" target="-MPCwY4QycjubMBgxY0D-26" edge="1">
          <mxGeometry width="50" height="50" relative="1" as="geometry">
            <mxPoint x="563" y="1130" as="sourcePoint" />
            <mxPoint x="613" y="1080" as="targetPoint" />
          </mxGeometry>
        </mxCell>
        <mxCell id="_8SqQ5d0Q-dbpcb6T9Er-44" value="&amp;lt;&amp;lt;instance of&amp;gt;&amp;gt;" style="edgeLabel;html=1;align=center;verticalAlign=middle;resizable=0;points=[];" parent="-MPCwY4QycjubMBgxY0D-30" connectable="0" vertex="1">
          <mxGeometry x="0.1609" relative="1" as="geometry">
            <mxPoint as="offset" />
          </mxGeometry>
        </mxCell>
        <mxCell id="-MPCwY4QycjubMBgxY0D-31" value="" style="endArrow=classic;dashed=1;html=1;strokeWidth=1;rounded=0;entryX=0;entryY=0.5;entryDx=0;entryDy=0;endFill=1;" parent="1" target="-MPCwY4QycjubMBgxY0D-27" edge="1">
          <mxGeometry width="50" height="50" relative="1" as="geometry">
            <mxPoint x="520" y="1200" as="sourcePoint" />
            <mxPoint x="669" y="1100" as="targetPoint" />
          </mxGeometry>
        </mxCell>
        <mxCell id="_8SqQ5d0Q-dbpcb6T9Er-45" value="&amp;lt;&amp;lt;instance of&amp;gt;&amp;gt;" style="edgeLabel;html=1;align=center;verticalAlign=middle;resizable=0;points=[];" parent="-MPCwY4QycjubMBgxY0D-31" connectable="0" vertex="1">
          <mxGeometry x="-0.0775" y="1" relative="1" as="geometry">
            <mxPoint as="offset" />
          </mxGeometry>
        </mxCell>
        <mxCell id="-MPCwY4QycjubMBgxY0D-32" value="" style="endArrow=classic;dashed=1;html=1;strokeWidth=1;rounded=0;entryX=0;entryY=0.5;entryDx=0;entryDy=0;endFill=1;" parent="1" target="-MPCwY4QycjubMBgxY0D-28" edge="1">
          <mxGeometry width="50" height="50" relative="1" as="geometry">
            <mxPoint x="520" y="1200" as="sourcePoint" />
            <mxPoint x="669" y="1210" as="targetPoint" />
          </mxGeometry>
        </mxCell>
        <mxCell id="_8SqQ5d0Q-dbpcb6T9Er-46" value="&amp;lt;&amp;lt;instance of&amp;gt;&amp;gt;" style="edgeLabel;html=1;align=center;verticalAlign=middle;resizable=0;points=[];" parent="-MPCwY4QycjubMBgxY0D-32" connectable="0" vertex="1">
          <mxGeometry x="0.0318" y="1" relative="1" as="geometry">
            <mxPoint as="offset" />
          </mxGeometry>
        </mxCell>
        <mxCell id="_8SqQ5d0Q-dbpcb6T9Er-1" value="" style="endArrow=none;html=1;rounded=0;entryX=0;entryY=0.5;entryDx=0;entryDy=0;" parent="1" target="-MPCwY4QycjubMBgxY0D-22" edge="1">
          <mxGeometry width="50" height="50" relative="1" as="geometry">
            <mxPoint x="270" y="550" as="sourcePoint" />
            <mxPoint x="388" y="610" as="targetPoint" />
          </mxGeometry>
        </mxCell>
        <mxCell id="_8SqQ5d0Q-dbpcb6T9Er-2" value="" style="endArrow=none;html=1;rounded=0;entryX=0;entryY=0.5;entryDx=0;entryDy=0;" parent="1" target="-MPCwY4QycjubMBgxY0D-21" edge="1">
          <mxGeometry width="50" height="50" relative="1" as="geometry">
            <mxPoint x="270" y="550" as="sourcePoint" />
            <mxPoint x="408" y="611" as="targetPoint" />
          </mxGeometry>
        </mxCell>
        <mxCell id="_8SqQ5d0Q-dbpcb6T9Er-3" value="" style="endArrow=none;html=1;rounded=0;entryX=0;entryY=0.5;entryDx=0;entryDy=0;" parent="1" target="-MPCwY4QycjubMBgxY0D-20" edge="1">
          <mxGeometry width="50" height="50" relative="1" as="geometry">
            <mxPoint x="270" y="820" as="sourcePoint" />
            <mxPoint x="408" y="920" as="targetPoint" />
          </mxGeometry>
        </mxCell>
        <mxCell id="_8SqQ5d0Q-dbpcb6T9Er-10" value="Reset Account Password" style="ellipse;whiteSpace=wrap;html=1;" parent="1" vertex="1">
          <mxGeometry x="520.38" y="1370" width="120" height="80" as="geometry" />
        </mxCell>
        <mxCell id="_8SqQ5d0Q-dbpcb6T9Er-11" value="" style="endArrow=classic;dashed=1;html=1;strokeWidth=1;rounded=0;exitX=0.983;exitY=0.6;exitDx=0;exitDy=0;exitPerimeter=0;entryX=0.5;entryY=0;entryDx=0;entryDy=0;endFill=1;" parent="1" target="_8SqQ5d0Q-dbpcb6T9Er-10" edge="1">
          <mxGeometry width="50" height="50" relative="1" as="geometry">
            <mxPoint x="520.25" y="1200" as="sourcePoint" />
            <mxPoint x="570" y="1410" as="targetPoint" />
          </mxGeometry>
        </mxCell>
        <mxCell id="_8SqQ5d0Q-dbpcb6T9Er-47" value="&amp;lt;&amp;lt;instance of&amp;gt;&amp;gt;" style="edgeLabel;html=1;align=center;verticalAlign=middle;resizable=0;points=[];" parent="_8SqQ5d0Q-dbpcb6T9Er-11" connectable="0" vertex="1">
          <mxGeometry x="0.008" y="-2" relative="1" as="geometry">
            <mxPoint as="offset" />
          </mxGeometry>
        </mxCell>
        <mxCell id="_8SqQ5d0Q-dbpcb6T9Er-21" value="" style="endArrow=none;html=1;rounded=0;entryX=0;entryY=0.5;entryDx=0;entryDy=0;" parent="1" target="-MPCwY4QycjubMBgxY0D-29" edge="1">
          <mxGeometry width="50" height="50" relative="1" as="geometry">
            <mxPoint x="270" y="1200" as="sourcePoint" />
            <mxPoint x="350" y="1160" as="targetPoint" />
          </mxGeometry>
        </mxCell>
        <mxCell id="DGdy6gdR3vb5aEr1v1zL-5" style="edgeStyle=orthogonalEdgeStyle;rounded=0;orthogonalLoop=1;jettySize=auto;html=1;entryX=1;entryY=0;entryDx=0;entryDy=0;dashed=1;" parent="1" source="_8SqQ5d0Q-dbpcb6T9Er-28" target="-MPCwY4QycjubMBgxY0D-14" edge="1">
          <mxGeometry relative="1" as="geometry" />
        </mxCell>
        <mxCell id="DGdy6gdR3vb5aEr1v1zL-12" value="&amp;lt;&amp;lt;include&amp;gt;&amp;gt;" style="edgeLabel;html=1;align=center;verticalAlign=middle;resizable=0;points=[];" parent="DGdy6gdR3vb5aEr1v1zL-5" connectable="0" vertex="1">
          <mxGeometry x="-0.5931" y="-4" relative="1" as="geometry">
            <mxPoint x="2" y="-4" as="offset" />
          </mxGeometry>
        </mxCell>
        <mxCell id="_8SqQ5d0Q-dbpcb6T9Er-28" value="Create Job Assignment" style="ellipse;whiteSpace=wrap;html=1;" parent="1" vertex="1">
          <mxGeometry x="398.88" y="200" width="120" height="80" as="geometry" />
        </mxCell>
        <mxCell id="_8SqQ5d0Q-dbpcb6T9Er-30" value="" style="endArrow=none;html=1;rounded=0;entryX=0;entryY=0.5;entryDx=0;entryDy=0;" parent="1" target="_8SqQ5d0Q-dbpcb6T9Er-28" edge="1">
          <mxGeometry width="50" height="50" relative="1" as="geometry">
            <mxPoint x="270" y="550" as="sourcePoint" />
            <mxPoint x="414" y="340" as="targetPoint" />
          </mxGeometry>
        </mxCell>
        <mxCell id="_8SqQ5d0Q-dbpcb6T9Er-38" value="Coach Company Load Management Web Application&lt;br&gt;&amp;lt;&amp;lt;System&amp;gt;&amp;gt;" style="text;html=1;strokeColor=none;fillColor=none;align=center;verticalAlign=middle;whiteSpace=wrap;rounded=0;movable=0;resizable=0;rotatable=0;deletable=0;editable=0;locked=1;connectable=0;" parent="1" vertex="1">
          <mxGeometry x="750" y="60" width="170" height="70" as="geometry" />
        </mxCell>
        <mxCell id="DGdy6gdR3vb5aEr1v1zL-2" style="edgeStyle=orthogonalEdgeStyle;rounded=0;orthogonalLoop=1;jettySize=auto;html=1;entryX=0.092;entryY=0.238;entryDx=0;entryDy=0;entryPerimeter=0;dashed=1;" parent="1" source="_8SqQ5d0Q-dbpcb6T9Er-56" target="-MPCwY4QycjubMBgxY0D-14" edge="1">
          <mxGeometry relative="1" as="geometry" />
        </mxCell>
        <mxCell id="DGdy6gdR3vb5aEr1v1zL-8" value="&amp;lt;&amp;lt;include&amp;gt;&amp;gt;" style="edgeLabel;html=1;align=center;verticalAlign=middle;resizable=0;points=[];" parent="DGdy6gdR3vb5aEr1v1zL-2" connectable="0" vertex="1">
          <mxGeometry x="-0.3874" y="-1" relative="1" as="geometry">
            <mxPoint x="10" y="-1" as="offset" />
          </mxGeometry>
        </mxCell>
        <mxCell id="_8SqQ5d0Q-dbpcb6T9Er-56" value="Validate Job Assignment Rejection Request" style="ellipse;whiteSpace=wrap;html=1;" parent="1" vertex="1">
          <mxGeometry x="400.38" y="540" width="120" height="80" as="geometry" />
        </mxCell>
        <mxCell id="_8SqQ5d0Q-dbpcb6T9Er-57" value="" style="endArrow=none;html=1;rounded=0;entryX=0;entryY=0.5;entryDx=0;entryDy=0;" parent="1" target="_8SqQ5d0Q-dbpcb6T9Er-56" edge="1">
          <mxGeometry width="50" height="50" relative="1" as="geometry">
            <mxPoint x="270" y="550" as="sourcePoint" />
            <mxPoint x="406" y="560" as="targetPoint" />
          </mxGeometry>
        </mxCell>
        <mxCell id="DGdy6gdR3vb5aEr1v1zL-6" style="edgeStyle=orthogonalEdgeStyle;rounded=0;orthogonalLoop=1;jettySize=auto;html=1;entryX=1;entryY=0.5;entryDx=0;entryDy=0;dashed=1;" parent="1" source="_8SqQ5d0Q-dbpcb6T9Er-60" target="-MPCwY4QycjubMBgxY0D-14" edge="1">
          <mxGeometry relative="1" as="geometry" />
        </mxCell>
        <mxCell id="DGdy6gdR3vb5aEr1v1zL-13" value="&amp;lt;&amp;lt;include&amp;gt;&amp;gt;" style="edgeLabel;html=1;align=center;verticalAlign=middle;resizable=0;points=[];" parent="DGdy6gdR3vb5aEr1v1zL-6" connectable="0" vertex="1">
          <mxGeometry x="-0.6255" y="-1" relative="1" as="geometry">
            <mxPoint x="3" y="-1" as="offset" />
          </mxGeometry>
        </mxCell>
        <mxCell id="_8SqQ5d0Q-dbpcb6T9Er-60" value="Modify Job Assignment" style="ellipse;whiteSpace=wrap;html=1;" parent="1" vertex="1">
          <mxGeometry x="400.38" y="100" width="120" height="80" as="geometry" />
        </mxCell>
        <mxCell id="_8SqQ5d0Q-dbpcb6T9Er-65" value="" style="endArrow=none;html=1;rounded=0;entryX=0;entryY=0.5;entryDx=0;entryDy=0;" parent="1" target="_8SqQ5d0Q-dbpcb6T9Er-60" edge="1">
          <mxGeometry width="50" height="50" relative="1" as="geometry">
            <mxPoint x="270" y="550" as="sourcePoint" />
            <mxPoint x="388" y="240" as="targetPoint" />
          </mxGeometry>
        </mxCell>
        <mxCell id="DGdy6gdR3vb5aEr1v1zL-1" style="edgeStyle=orthogonalEdgeStyle;rounded=0;orthogonalLoop=1;jettySize=auto;html=1;entryX=0;entryY=0.5;entryDx=0;entryDy=0;exitX=1;exitY=0.5;exitDx=0;exitDy=0;dashed=1;" parent="1" source="_8SqQ5d0Q-dbpcb6T9Er-66" target="-MPCwY4QycjubMBgxY0D-14" edge="1">
          <mxGeometry relative="1" as="geometry">
            <Array as="points">
              <mxPoint x="620" y="690" />
              <mxPoint x="620" y="640" />
              <mxPoint x="940" y="640" />
              <mxPoint x="940" y="820" />
            </Array>
          </mxGeometry>
        </mxCell>
        <mxCell id="DGdy6gdR3vb5aEr1v1zL-7" value="&amp;lt;&amp;lt;include&amp;gt;&amp;gt;" style="edgeLabel;html=1;align=center;verticalAlign=middle;resizable=0;points=[];" parent="DGdy6gdR3vb5aEr1v1zL-1" connectable="0" vertex="1">
          <mxGeometry x="-0.2166" y="1" relative="1" as="geometry">
            <mxPoint as="offset" />
          </mxGeometry>
        </mxCell>
        <mxCell id="_8SqQ5d0Q-dbpcb6T9Er-66" value="View Job Assignments of all Crew Members" style="ellipse;whiteSpace=wrap;html=1;" parent="1" vertex="1">
          <mxGeometry x="400.38" y="650" width="120" height="80" as="geometry" />
        </mxCell>
      </root>
    </mxGraphModel>
  </diagram>
</mxfile>
